<?xml version="1.0" encoding="UTF-8"?>
<svg id="Layer_2" data-name="Layer 2" xmlns="http://www.w3.org/2000/svg" viewBox="0 0 614.5 187.37">
  <defs>
    <style>
      .cls-1 {
        fill: #fff;
      }
    </style>
  </defs>
  <g id="Layer_1-2" data-name="Layer 1">
    <g>
      <g>
        <polygon class="cls-1" points="499.61 176.92 499.58 187.36 468.37 187.36 468.36 166.56 478.78 166.54 478.79 156.13 499.59 156.13 499.6 166.54 510.01 166.54 510.01 176.96 499.61 176.92"/>
        <polygon class="cls-1" points="551.65 176.92 551.62 187.36 520.41 187.36 520.4 166.56 530.82 166.54 530.83 156.13 551.63 156.13 551.64 166.54 562.05 166.54 562.06 176.96 551.65 176.92"/>
        <polygon class="cls-1" points="604.1 176.92 604.07 187.36 572.86 187.36 572.85 166.56 583.27 166.54 583.28 156.13 604.08 156.13 604.09 166.54 614.5 166.54 614.5 176.96 604.1 176.92"/>
        <g>
          <polygon class="cls-1" points="166.53 62.46 156.12 62.46 156.12 52.05 166.54 52.05 166.53 62.46"/>
          <polygon class="cls-1" points="228.98 145.73 228.98 166.54 218.57 166.55 218.57 176.95 208.18 176.95 208.14 187.36 166.56 187.36 166.52 176.96 156.11 176.94 156.13 156.13 145.72 156.13 145.71 145.73 156.12 145.73 156.12 135.33 166.54 135.3 166.52 104.12 176.95 104.07 176.95 72.89 166.53 72.86 166.53 62.46 187.33 62.45 187.35 72.87 197.75 72.87 197.77 62.45 218.56 62.47 218.57 52.05 228.99 52.05 228.99 62.46 218.56 62.47 218.58 83.26 208.15 83.29 208.18 104.08 197.75 104.12 197.77 135.29 187.34 135.34 187.36 166.52 176.93 166.55 176.97 176.96 208.15 176.96 208.17 166.55 218.58 166.53 218.56 145.72 228.98 145.73"/>
          <polygon class="cls-1" points="228.98 166.54 239.39 166.54 239.39 145.73 249.8 145.73 249.8 135.32 239.39 135.32 239.39 124.91 249.8 124.91 249.8 114.51 260.22 114.48 260.2 83.3 270.62 83.27 270.62 72.87 260.18 72.87 260.24 62.46 301.81 62.46 301.85 72.87 312.25 72.87 312.25 62.46 322.65 62.46 322.67 52.05 343.46 52.05 343.49 62.47 364.3 62.45 364.28 83.26 374.7 83.29 374.7 72.87 385.1 72.87 385.12 62.45 405.91 62.47 405.92 52.05 416.33 52.05 416.34 62.46 437.15 62.47 437.15 114.46 426.73 114.52 426.75 135.3 416.33 135.35 416.33 176.95 437.15 176.96 437.14 156.14 447.56 156.13 447.55 145.73 457.96 145.73 457.96 135.32 468.37 135.32 468.37 124.91 478.79 124.9 478.78 135.32 468.37 135.32 468.37 145.73 457.96 145.73 457.96 156.13 447.54 156.14 447.57 176.94 437.16 176.96 437.12 187.36 395.54 187.36 395.5 176.96 385.1 176.92 385.1 135.35 395.52 135.3 395.5 114.52 405.93 114.48 405.91 83.3 416.34 83.26 416.34 62.47 405.93 62.45 405.91 72.88 385.12 72.86 385.1 83.28 374.7 83.28 374.7 93.68 364.28 93.7 364.3 114.48 353.87 114.52 353.89 145.7 343.46 145.74 343.48 166.53 333.06 166.56 333.07 187.36 301.87 187.36 301.82 176.96 312.26 176.93 312.24 145.75 322.67 145.7 322.65 114.53 333.07 114.48 333.05 83.3 343.48 83.27 343.48 72.87 333.06 72.87 333.07 62.46 322.65 62.46 322.66 72.87 312.25 72.87 312.25 83.28 301.84 83.28 301.84 93.68 291.42 93.7 291.44 114.49 281.01 114.51 281.03 135.3 270.61 135.34 270.62 166.52 260.21 166.55 260.21 176.95 249.8 176.95 249.79 187.37 228.98 187.36 228.98 166.54"/>
          <polygon class="cls-1" points="156.12 62.46 156.13 72.87 145.71 72.87 145.72 83.28 135.31 83.28 135.31 93.68 124.9 93.68 124.9 104.09 114.48 104.1 114.5 124.89 104.08 124.95 104.08 176.95 135.31 176.95 135.3 187.36 83.3 187.36 83.25 176.95 72.85 176.94 72.87 156.14 62.44 156.14 62.46 176.96 41.65 176.94 41.6 187.36 0 187.36 0 135.32 10.42 135.31 10.4 114.52 20.83 114.48 20.81 83.3 31.22 83.27 31.22 72.87 41.63 72.87 41.64 62.45 62.44 62.45 62.46 72.86 52.03 72.89 52.05 104.07 41.62 104.12 41.64 135.29 31.22 135.34 31.23 166.52 20.81 166.55 20.83 176.96 41.63 176.96 41.64 166.54 52.04 166.54 52.04 156.13 62.45 156.13 62.45 145.73 72.87 145.72 72.85 124.92 83.28 124.9 83.26 104.1 93.67 104.09 93.67 93.68 104.08 93.68 104.08 83.28 114.49 83.28 114.49 72.87 124.89 72.87 124.92 62.45 156.12 62.46"/>
          <rect class="cls-1" x="228.98" y="135.32" width="10.41" height="10.41"/>
          <polygon class="cls-1" points="145.72 156.13 145.72 176.94 135.31 176.95 135.31 156.14 145.72 156.13"/>
        </g>
      </g>
      <polygon class="cls-1" points="52.09 31.25 52.01 10.43 62.44 10.41 62.46 0 83.27 .01 83.27 31.23 52.09 31.25"/>
    </g>
  </g>
</svg>