<?xml version="1.0" encoding="UTF-8"?>
<svg id="Layer_2" data-name="Layer 2" xmlns="http://www.w3.org/2000/svg" viewBox="0 0 599.41 457.83">
  <defs>
    <style>
      .cls-1 {
        fill: #00f7f6;
      }

      .cls-2 {
        fill: #ea0f0b;
      }

      .cls-3 {
        fill: #e6e6e6;
        opacity: .5;
      }
    </style>
  </defs>
  <g id="Layer_3" data-name="Layer 3">
    <g>
      <g>
        <rect class="cls-1" y="163.51" width="558.83" height="261.25"/>
        <path class="cls-2" d="M312.77,28.28c-20.8-11.43-45.91-11.43-66.72,0L0,163.51l279.41,136.8,279.41-136.8L312.77,28.28Z"/>
      </g>
      <path class="cls-1" d="M281.29,115.33c-50.84-50.84-111.53,9.85-60.69,60.69l60.69,60.69,60.69-60.69c50.84-50.84-9.85-111.53-60.69-60.69Z"/>
    </g>
  </g>
  <g id="Layer_4" data-name="Layer 4">
    <rect class="cls-3" x="236.43" y="89.15" width="141.71" height="141.71"/>
    <rect class="cls-3" x="30.64" y="316.12" width="141.71" height="141.71"/>
    <rect class="cls-3" x="137.7" y="0" width="141.71" height="141.71" rx="70.86" ry="70.86"/>
    <rect class="cls-3" x="442.46" y="316.12" width="141.71" height="141.71" rx="70.86" ry="70.86"/>
    <rect class="cls-3" x="457.7" y="255.21" width="141.71" height="141.71" rx="70.86" ry="70.86"/>
  </g>
</svg>