<?xml version="1.0" encoding="UTF-8"?>
<svg id="Layer_2" data-name="Layer 2" xmlns="http://www.w3.org/2000/svg" viewBox="0 0 804.57 603.3">
  <defs>
    <style>
      .cls-1 {
        fill: aqua;
      }
    </style>
  </defs>
  <g id="Layer_2-2" data-name="Layer 2">
    <g>
      <g>
        <polygon class="cls-1" points="251.43 150.73 251.43 100.44 201.14 100.44 150.86 100.44 150.86 150.73 201.14 150.73 251.43 150.73"/>
        <polygon class="cls-1" points="352 100.44 352 50.29 402.29 50.29 452.57 50.29 452.57 100.44 502.86 100.44 553.14 100.44 553.14 50.16 502.86 50.16 452.57 50.16 452.57 0 402.29 0 352 0 352 50.16 301.71 50.16 251.43 50.16 251.43 100.44 301.71 100.44 352 100.44"/>
        <polygon class="cls-1" points="603.43 150.73 653.71 150.73 653.71 100.44 603.43 100.44 553.14 100.44 553.14 150.73 603.43 150.73"/>
        <polygon class="cls-1" points="754.29 201.02 754.29 150.73 704 150.73 653.71 150.73 653.71 201.02 704 201.02 704 250.3 704 251.3 704 251.37 653.71 251.37 653.71 301.65 603.43 301.65 553.14 301.65 553.14 351.94 502.86 351.94 452.57 351.94 452.57 402.1 402.29 402.1 352 402.1 352 351.94 301.71 351.94 251.43 351.94 251.43 301.65 201.14 301.65 150.86 301.65 150.86 251.37 100.57 251.37 100.57 251.3 100.57 250.3 100.57 201.02 150.86 201.02 150.86 150.73 100.57 150.73 50.29 150.73 50.29 201.02 0 201.02 0 251.3 0 301.59 0 351.87 0 402.16 0 452.44 0 502.73 0 553.02 0 603.3 50.29 603.3 100.57 603.3 150.86 603.3 201.14 603.3 251.43 603.3 301.71 603.3 352 603.3 402.29 603.3 452.57 603.3 502.86 603.3 553.14 603.3 603.43 603.3 653.71 603.3 704 603.3 754.29 603.3 804.57 603.3 804.57 553.02 804.57 502.73 804.57 452.44 804.57 402.16 804.57 351.87 804.57 301.59 804.57 251.3 804.57 201.02 754.29 201.02"/>
      </g>
      <polygon class="cls-1" points="477.71 125.56 427.43 125.56 427.43 175.84 377.14 175.84 377.14 125.56 326.86 125.56 276.57 125.56 276.57 175.84 276.57 226.13 276.57 276.41 326.86 276.41 326.86 326.7 377.14 326.7 377.14 376.98 427.43 376.98 427.43 326.7 477.71 326.7 477.71 276.41 528 276.41 528 226.13 528 175.84 528 125.56 477.71 125.56"/>
    </g>
  </g>
</svg>