<?xml version="1.0" encoding="UTF-8"?>
<svg id="Layer_2" data-name="Layer 2" xmlns="http://www.w3.org/2000/svg" viewBox="0 0 558.83 405.05">
  <defs>
    <style>
      .cls-1 {
        fill: #fff;
      }

      .cls-2 {
        fill: #00f7f6;
      }
    </style>
  </defs>
  <g id="Layer_3" data-name="Layer 3">
    <g>
      <g>
        <rect class="cls-2" y="143.8" width="558.83" height="261.25"/>
        <g>
          <path class="cls-1" d="M15.45,143.87L249.67,15.15c9.1-5,19.39-7.65,29.75-7.65s20.64,2.64,29.75,7.65l234.22,128.72-263.97,148.13L15.45,143.87Z"/>
          <path class="cls-2" d="M279.41,15c9.1,0,18.13,2.32,26.13,6.72l222.39,122.22-248.52,139.47L30.89,143.94,253.28,21.72c8-4.4,17.04-6.72,26.13-6.72M279.41,0c-11.48,0-22.96,2.86-33.36,8.57L0,143.8l279.41,156.8,279.41-156.8L312.77,8.57c-10.4-5.72-21.88-8.57-33.36-8.57h0Z"/>
        </g>
      </g>
      <path class="cls-2" d="M281.29,105.62c-50.84-50.84-111.53,9.85-60.69,60.69l60.69,60.69,60.69-60.69c50.84-50.84-9.85-111.53-60.69-60.69Z"/>
    </g>
  </g>
</svg>