<?xml version="1.0" encoding="UTF-8"?>
<svg id="Layer_2" data-name="Layer 2" xmlns="http://www.w3.org/2000/svg" viewBox="0 0 804.64 603.43">
  <defs>
    <style>
      .cls-1 {
        fill: aqua;
      }
    </style>
  </defs>
  <g id="Layer_2-2" data-name="Layer 2">
    <g>
      <polygon class="cls-1" points="754.26 0 703.76 0 703.7 0 653.55 0 653.48 0 603.26 0 553.02 0 552.98 0 502.81 0 502.74 0 452.52 0 402.29 0 402.24 0 352 0 352 50.29 754.26 50.29 754.26 0"/>
      <path class="cls-1" d="M754.26,50.29v50.72l-402.26-.23v-50.49h-50.29V0H50.29v50.29H0v502.86h50.29v50.29h704v-50.13h.07s50.29,0,50.29,0V50.29h-50.38ZM377.18,251.51v100.57h-50.29v50.29h-50.29v50.29h-50.29v-50.29h-50.29v-50.29h-50.29v-150.86h100.57v50.29h50.29v-50.29h100.57v50.29ZM678.89,251.51v201.14h-251.43v-251.43h251.43v50.29Z"/>
    </g>
  </g>
</svg>