<?xml version="1.0" encoding="UTF-8"?>
<svg id="Layer_2" data-name="Layer 2" xmlns="http://www.w3.org/2000/svg" viewBox="0 0 555.08 410.18">
  <defs>
    <style>
      .cls-1 {
        fill: #fff;
      }

      .cls-2 {
        fill: #00f7f6;
      }
    </style>
  </defs>
  <g id="Files">
    <g>
      <g>
        <g>
          <path class="cls-1" d="M7.5,147.19v-78.54C7.5,34.93,34.93,7.5,68.65,7.5h137.12v17.14h279.95c34.11,0,61.87,27.75,61.87,61.87v60.68H7.5Z"/>
          <path class="cls-2" d="M198.27,15v17.14h287.45c29.98,0,54.37,24.39,54.37,54.37v53.18H15v-71.04c0-29.58,24.07-53.65,53.65-53.65h129.62M213.27,0H68.65C30.74,0,0,30.74,0,68.65v86.04h555.08v-68.18c0-38.31-31.06-69.37-69.37-69.37H213.27V0h0Z"/>
        </g>
        <rect class="cls-2" y="70.69" width="555.08" height="339.49" rx="81.93" ry="81.93"/>
      </g>
      <g>
        <path class="cls-1" d="M202.78,189.34c-50.84-50.84-111.53,9.85-60.69,60.69l60.69,60.69,60.69-60.69c50.84-50.84-9.85-111.53-60.69-60.69Z"/>
        <rect class="cls-1" x="292.33" y="174.52" width="131.85" height="131.85"/>
      </g>
    </g>
  </g>
</svg>