<?xml version="1.0" encoding="UTF-8"?>
<svg id="Layer_2" data-name="Layer 2" xmlns="http://www.w3.org/2000/svg" viewBox="0 0 553.14 251.43">
  <defs>
    <style>
      .cls-1 {
        fill: #00f7f6;
      }
    </style>
  </defs>
  <g id="Layer_2-2" data-name="Layer 2">
    <g>
      <polygon class="cls-1" points="150.86 0 150.86 50.29 100.57 50.29 100.57 0 50.29 0 0 0 0 50.29 0 100.57 0 150.86 50.29 150.86 50.29 201.14 100.57 201.14 100.57 251.43 150.86 251.43 150.86 201.14 201.14 201.14 201.14 150.86 251.43 150.86 251.43 100.57 251.43 50.29 251.43 0 201.14 0 150.86 0"/>
      <polygon class="cls-1" points="502.86 0 452.57 0 402.29 0 352 0 301.71 0 301.71 50.29 301.71 100.57 301.71 150.86 301.71 201.14 301.71 251.43 352 251.43 402.29 251.43 452.57 251.43 502.86 251.43 553.14 251.43 553.14 201.14 553.14 150.86 553.14 100.57 553.14 50.29 553.14 0 502.86 0"/>
    </g>
  </g>
</svg>