<?xml version="1.0" encoding="UTF-8"?>
<svg id="Layer_2" data-name="Layer 2" xmlns="http://www.w3.org/2000/svg" viewBox="0 0 804.57 603.31">
  <defs>
    <style>
      .cls-1 {
        fill: aqua;
      }
    </style>
  </defs>
  <g id="Layer_2-2" data-name="Layer 2">
    <polygon class="cls-1" points="754.29 100.53 754.29 100.49 754.29 50.33 704 50.33 653.71 50.33 653.71 100.49 653.71 100.53 603.43 100.53 603.43 50.29 603.43 0 553.14 0 502.86 0 452.57 0 402.29 0 352 0 301.71 0 251.43 0 201.14 0 150.86 0 150.86 50.29 150.86 100.57 150.86 150.82 150.86 150.86 150.86 201.06 150.86 201.1 150.86 251.31 150.86 251.35 150.86 301.56 150.86 301.6 150.86 343.69 150.86 351.84 150.86 351.88 100.57 351.88 50.29 351.88 50.29 402.17 0 402.17 0 452.45 0 502.74 0 553.02 50.29 553.02 50.29 603.31 100.57 603.31 150.86 603.31 201.14 603.31 201.14 553.02 251.43 553.02 251.43 502.74 251.43 452.45 251.43 402.17 251.43 351.84 251.43 343.69 251.43 301.6 251.43 301.56 251.43 251.35 251.43 251.31 251.43 201.1 251.43 201.06 251.43 150.86 251.43 150.82 251.43 100.57 251.43 100.53 301.71 100.53 301.71 150.78 301.71 150.82 301.71 201 301.71 201.06 301.71 251.29 352 251.29 402.29 251.29 402.29 201.06 402.29 201 402.29 150.82 402.29 150.78 402.29 100.53 452.57 100.53 502.86 100.53 502.86 100.57 502.86 150.82 502.86 150.86 502.86 201.06 502.86 201.1 502.86 251.31 502.86 251.35 502.86 301.56 502.86 301.6 502.86 343.69 502.86 351.84 502.86 351.88 452.57 351.88 402.29 351.88 402.29 402.17 352 402.17 352 452.45 352 502.74 352 553.02 402.29 553.02 402.29 603.31 452.57 603.31 502.86 603.31 553.14 603.31 553.14 553.02 603.43 553.02 603.43 502.74 603.43 502.72 653.71 502.72 653.71 552.96 704 552.96 754.29 552.96 754.29 502.72 804.57 502.72 804.57 452.43 804.57 402.15 754.29 402.15 754.29 402.11 754.29 351.94 704 351.94 653.71 351.94 653.71 402.11 653.71 402.15 603.43 402.15 603.43 351.84 603.43 343.69 603.43 301.6 603.43 301.56 603.43 251.35 603.43 251.31 603.43 201.1 653.71 201.1 653.71 251.35 704 251.35 754.29 251.35 754.29 201.1 804.57 201.1 804.57 150.82 804.57 100.53 754.29 100.53"/>
  </g>
</svg>