<?xml version="1.0" encoding="UTF-8"?>
<svg id="Layer_2" data-name="Layer 2" xmlns="http://www.w3.org/2000/svg" viewBox="0 0 555.2 409.59">
  <defs>
    <style>
      .cls-1 {
        fill: #00f7f6;
      }
    </style>
  </defs>
  <g id="Layer_2-2" data-name="Layer 2">
    <g>
      <path class="cls-1" d="M395.58,324.73V0H89.25v251.68c-3.27-.41-6.59-.65-9.97-.65C35.49,251.04,0,286.53,0,330.31s35.49,79.28,79.28,79.28,79.28-35.49,79.28-79.28V69.3h167.73v182.35c-3.2-.39-6.45-.62-9.76-.62-43.78,0-79.28,35.49-79.28,79.28s35.49,79.28,79.28,79.28,79.28-35.49,79.28-79.28c0-1.88-.09-3.74-.22-5.58Z"/>
      <g>
        <polygon class="cls-1" points="208.03 194.96 209.35 46 268.66 46 267.33 194.96 208.03 194.96"/>
        <path class="cls-1" d="M263.61,51l-1.23,138.96h-49.3l1.23-138.96h49.3M273.7,41h-69.3l-1.41,158.96h69.3l1.41-158.96h0Z"/>
      </g>
      <g>
        <path class="cls-1" d="M475.92,194.55c-40.96,0-74.28-33.32-74.28-74.28s33.32-74.28,74.28-74.28,74.28,33.32,74.28,74.28-33.32,74.28-74.28,74.28Z"/>
        <path class="cls-1" d="M475.92,51c38.2,0,69.28,31.08,69.28,69.28s-31.08,69.28-69.28,69.28-69.28-31.08-69.28-69.28,31.08-69.28,69.28-69.28M475.92,41c-43.78,0-79.28,35.49-79.28,79.28s35.49,79.28,79.28,79.28,79.28-35.49,79.28-79.28-35.49-79.28-79.28-79.28h0Z"/>
      </g>
      <g>
        <path class="cls-1" d="M475.92,404.59c-40.96,0-74.28-33.32-74.28-74.28s33.32-74.28,74.28-74.28,74.28,33.32,74.28,74.28-33.32,74.28-74.28,74.28Z"/>
        <path class="cls-1" d="M475.92,261.04c38.2,0,69.28,31.08,69.28,69.28s-31.08,69.28-69.28,69.28-69.28-31.08-69.28-69.28,31.08-69.28,69.28-69.28M475.92,251.04c-43.78,0-79.28,35.49-79.28,79.28s35.49,79.28,79.28,79.28,79.28-35.49,79.28-79.28-35.49-79.28-79.28-79.28h0Z"/>
      </g>
    </g>
  </g>
</svg>