<?xml version="1.0" encoding="UTF-8"?>
<svg id="Layer_2" data-name="Layer 2" xmlns="http://www.w3.org/2000/svg" viewBox="0 0 555.2 409.59">
  <defs>
    <style>
      .cls-1 {
        fill: #00f7f6;
      }

      .cls-2 {
        fill: #ea0f0b;
      }
    </style>
  </defs>
  <g id="Layer_2-2" data-name="Layer 2">
    <g>
      <path class="cls-1" d="M395.58,324.73V0H89.25v251.68c-3.27-.41-6.59-.65-9.97-.65C35.49,251.04,0,286.53,0,330.31s35.49,79.28,79.28,79.28,79.28-35.49,79.28-79.28V69.3h167.73v182.35c-3.2-.39-6.45-.62-9.76-.62-43.78,0-79.28,35.49-79.28,79.28s35.49,79.28,79.28,79.28,79.28-35.49,79.28-79.28c0-1.88-.09-3.74-.22-5.58Z"/>
      <polygon class="cls-2" points="272.29 199.96 202.99 199.96 204.4 41 273.7 41 272.29 199.96"/>
      <circle class="cls-2" cx="475.92" cy="120.28" r="79.28"/>
      <circle class="cls-2" cx="475.92" cy="330.31" r="79.28"/>
    </g>
  </g>
</svg>