<?xml version="1.0" encoding="UTF-8"?>
<svg id="Layer_2" data-name="Layer 2" xmlns="http://www.w3.org/2000/svg" viewBox="0 0 1004.65 189.91">
  <g id="Layer_1_copy" data-name="Layer 1 copy">
    <g>
      <path d="M291.71,50.92c.91,0,1.51-.6,1.51-1.51s-.6-1.51-1.51-1.51-1.51.6-1.51,1.51.61,1.51,1.51,1.51Z"/>
      <rect x="395.02" y="71.49" width="2.42" height=".61"/>
      <rect x="399.87" y="71.49" width="2.42" height=".61"/>
      <polygon points="419.23 44.87 419.23 45.48 419.83 44.87 419.23 44.87"/>
      <polygon points="411.97 76.33 411.97 76.33 411.97 76.33 411.97 76.33"/>
      <rect x="404.71" y="71.49" width="2.42" height=".61"/>
      <rect x="385.34" y="71.49" width="2.42" height=".61"/>
      <polygon points="375.66 73.91 375.66 73.91 375.66 73.91 375.66 73.91"/>
      <polygon points="426.49 88.44 424.07 88.44 424.07 87.23 422.86 87.23 422.86 88.44 422.86 90.86 424.07 90.86 424.07 110.22 447.06 110.22 447.06 107.8 426.49 107.8 426.49 88.44"/>
      <polygon points="431.33 87.23 428.91 87.23 428.91 105.38 447.06 105.38 447.06 102.96 431.33 102.96 431.33 87.23"/>
      <polygon points="414.39 118.39 410.45 122.32 422.86 122.32 422.86 119.9 414.39 119.9 414.39 118.39"/>
      <rect x="380.5" y="71.49" width="2.42" height=".61"/>
      <rect x="390.18" y="71.49" width="2.42" height=".61"/>
      <rect x="447.06" y="90.86" width="6.05" height="2.42"/>
      <polygon points="402.59 119.9 404.71 122.02 404.71 119.9 402.59 119.9"/>
      <polygon points="397.44 98.12 397.44 100.54 398.66 100.54 398.66 98.12 398.66 95.7 397.44 95.7 397.44 87.23 395.02 87.23 395.02 98.12 397.44 98.12"/>
      <polygon points="404.71 122.32 405.01 122.32 404.71 122.02 404.71 122.32"/>
      <polygon points="402.29 119.9 402.59 119.9 402.29 119.6 402.29 119.9"/>
      <rect x="447.06" y="95.7" width="6.05" height="2.42"/>
      <polygon points="415.29 117.48 415.29 115.06 415.29 112.64 415.29 110.22 415.29 107.8 415.29 105.38 415.29 102.96 415.29 102.35 414.39 101.45 414.39 118.39 415.29 117.48"/>
      <polygon points="413.48 100.54 411.97 99.03 411.97 100.54 413.48 100.54"/>
      <polygon points="407.13 96 406.07 98.12 407.13 98.12 407.13 96"/>
      <polygon points="411.06 98.12 409.55 96.6 409.55 98.12 411.06 98.12"/>
      <polygon points="404.71 102.96 404.71 100.84 403.65 102.96 404.71 102.96"/>
      <polygon points="414.39 100.54 413.48 100.54 414.39 101.45 414.39 100.54"/>
      <polygon points="400.17 117.48 402.29 119.6 402.29 117.48 400.17 117.48"/>
      <polygon points="407.43 124.74 408.03 124.74 409.55 123.23 410.45 122.32 405.01 122.32 407.43 124.74"/>
      <polygon points="399.87 117.48 400.17 117.48 400.17 109.92 403.65 102.96 399.87 102.96 399.87 100.54 398.66 100.54 398.66 105.38 399.87 105.38 399.87 107.8 399.87 110.22 398.66 110.22 398.66 111.43 398.66 115.06 399.87 115.06 399.87 117.48"/>
      <polygon points="450.69 107.8 450.69 110.22 453.11 110.22 453.11 105.38 447.06 105.38 447.06 107.8 450.69 107.8"/>
      <polygon points="408.03 124.74 407.73 125.04 407.43 124.74 402.29 124.74 402.29 122.32 399.87 122.32 399.87 119.9 398.66 119.9 398.66 124.74 399.87 124.74 399.87 127.16 422.86 127.16 422.86 124.74 409.55 124.74 408.03 124.74"/>
      <polygon points="448.27 115.06 448.27 117.48 453.11 117.48 453.11 115.06 450.69 115.06 450.69 112.64 448.27 112.64 448.27 110.22 447.06 110.22 447.06 115.06 448.27 115.06"/>
      <rect x="447.06" y="100.54" width="6.05" height="2.42"/>
      <rect x="398.66" y="129.58" width="24.2" height="2.42"/>
      <rect x="416.81" y="147.74" width="36.31" height="1.21"/>
      <polygon points="373.24 144.1 373.85 144.1 373.24 143.5 373.24 144.1"/>
      <polygon points="411.97 98.12 411.06 98.12 411.97 99.03 411.97 98.12"/>
      <polygon points="375.66 146.53 376.27 146.53 375.66 145.92 375.66 146.53"/>
      <rect x="378.08" y="147.74" width="29.04" height="1.21"/>
      <polygon points="414.39 81.18 414.39 83.6 416.81 83.6 416.81 90.86 419.23 90.86 419.23 93.28 421.65 93.28 421.65 112.64 422.86 112.64 422.86 90.86 421.65 90.86 421.65 88.44 419.23 88.44 419.23 81.18 416.81 81.18 416.81 78.75 415.29 78.75 415.29 79.66 411.97 76.33 411.97 81.18 414.39 81.18"/>
      <polygon points="376.27 146.53 377.48 147.74 378.08 147.74 378.08 146.53 376.27 146.53"/>
      <polygon points="436.17 87.23 433.75 87.23 433.75 100.54 447.06 100.54 447.06 98.12 436.17 98.12 436.17 87.23"/>
      <polygon points="369.01 139.26 370.82 141.08 370.82 139.26 369.01 139.26"/>
      <polygon points="373.85 144.1 375.66 145.92 375.66 144.1 373.85 144.1"/>
      <polygon points="371.43 141.69 373.24 143.5 373.24 141.69 371.43 141.69"/>
      <polygon points="415.29 141.69 413.78 141.69 411.36 144.1 414.39 144.1 414.39 146.53 415.29 146.53 415.29 147.74 416.81 147.74 416.81 146.53 416.81 144.1 415.29 144.1 415.29 141.69"/>
      <path d="M422.86,134.42h-24.2v1.21h-7.26v-3.63h1.21v2.42h6.05v-2.42h-3.63v-2.42h-2.42v-2.42h-1.21v-4.84h1.21v2.42h2.42v2.42h2.42v2.42h1.21v-4.84h-1.21v-2.42h-2.42v-2.42h-2.42v-2.42h-1.21v-4.84h1.21v2.42h2.42v2.42h2.42v2.42h1.21v-4.84h-1.21v-2.42h-2.42v-2.42h-2.42v-2.42h-1.21v-4.84h1.21v2.42h2.42v2.42h2.42v2.42h1.21v-4.84h-1.21v-2.42h-2.42v-2.42h-2.42v-13.31h-1.21v-7.26h-1.21v-7.87h-2.42v7.87h-2.42v-7.87h-2.42v7.87h-2.42v-7.87h-3.03l-1.82,1.81h2.42v6.05h-2.42v-6.05l-4.84,4.84h2.42v1.21h-1.21v42.36h-1.21v-43.57l-.91.91v7.56l-.3.3v-7.87h-56.58v13.77h-4.69v-.7h-6.05v-12.84h6.05v-.92h-6.05v-8.39c0-.91.6-1.51,1.51-1.51s1.51-.61,1.51-1.51v-1.42h3.03v-.92h-3.03v-.69c0-.91-.61-1.51-1.51-1.51s-1.51-.6-1.51-1.51-.61-1.51-1.51-1.51-1.51-.6-1.51-1.51-.6-1.51-1.51-1.51-1.51.61-1.51,1.51c0,.6-.29,1.05-.73,1.3v-7.4h12.84v-.92h-12.84v-3.58h2.25c.91,0,1.51.6,1.51,1.51s.6,1.51,1.51,1.51,1.51-.6,1.51-1.51.6-1.51,1.51-1.51,1.51-.61,1.51-1.51.6-1.51,1.51-1.51,1.51-.61,1.51-1.51.6-1.51,1.51-1.51,1.51-.6,1.51-1.51-.6-1.51-1.51-1.51-1.51-.6-1.51-1.51-.6-1.51-1.51-1.51h-3.03c-.91,0-1.51.6-1.51,1.51,0,.15-.04.28-.07.41h-48.88v45.19h-15.23v32.42h-8.1v8.1h-8.1v-8.1h-8.1v-32.42h-16.21v-.48h-6.72v-6.72h6.72v-.48h-6.72v-6.72h6.72v-.48h-6.72v-6.72h6.72v-.48h-6.72v-6.72h6.72v-.48h-6.72v-6.72h6.72v-.48h-6.72v-6.72h6.72v-.48h-6.72v-6.72h6.72v-.48h-40.62v-4.52h-9.23v-9.01h-9.23v-9.23h-27.7v9.23h-18.17v-9.23h-18.47V0h-28.22v9.23h-18.47v9.23h-9.23v9.23h-9.01v27.7h9.01v9.23h9.23v9.23h18.47v9.23h18.69v27.7h-9.23v9.01h-9.23v-9.01h-27.92v9.23h-9.23v9.23H0v9.23h9.01v9.23h37.16v-9.23h18.47v9.23h9.23v9.23h18.47v9.23h27.7v-9.23h12.72v26.78h64.83v-.48h-6.72v-6.72h6.72v-.48h-6.72v-6.72h6.72v-.48h-6.72v-6.72h6.72v-.48h-6.72v-6.72h6.72v-.48h-6.72v-6.72h6.72v-.48h-6.72v-6.72h6.72v-.48h-6.72v-6.72h6.72v-.48h-6.72v-6.72h6.72v-.48h-6.72v-6.72h6.72v4.5h8.1v8.1h8.1v8.1h8.1v8.1h8.1v-8.1h8.1v-8.1h8.1v-8.1h7.13v66.48h55.01v-.92h-12.84v-12.83h12.84v-.92h-12.84v-12.83h12.84v-.92h-12.84v-12.83h3.76v.9h56.42v-13.62h9.98l.3.3v-.3h3.63v-1.51h1.21v2.42h1.21v1.21h1.21v1.21h2.42v2.42h2.42v2.42h2.42v2.42h26.62v1.21h.6l3.63-3.63h-28.44v-2.42h-2.42v-2.42h-2.42v-1.21h4.84v1.21h2.42v2.42h28.44l1.51-1.51v1.51h1.51v2.42h2.42v2.42h33.89v-2.42h-31.46v-2.42h-2.42v-2.42h-31.46v-1.21h3.63v-1.21h30.25v2.42h2.42v2.42h29.04v-2.42h-26.62v-2.42h-2.42v-1.21h-1.21v-1.21ZM46.17,129.27h-9.23v9.23H9.23v-9.23h9.23v-9.23h27.7v9.23ZM139.96,39.2h-6.72v-6.72h6.72v6.72ZM139.96,39.68v6.48h-1.68v.24h-5.04v-6.72h6.72ZM140.44,125.65v-6.72h6.72v6.72h-6.72ZM147.16,126.13v6.72h-6.72v-6.72h6.72ZM140.44,118.44v-6.72h6.72v6.72h-6.72ZM140.44,111.24v-6.72h6.72v6.72h-6.72ZM140.44,104.03v-6.72h6.72v6.72h-6.72ZM140.44,96.83v-6.72h6.72v6.72h-6.72ZM140.44,89.63v-6.72h6.72v6.72h-6.72ZM140.44,82.42v-6.72h6.72v6.72h-6.72ZM140.44,75.22v-6.72h6.72v6.72h-6.72ZM140.44,68.02v-6.72h6.72v6.72h-6.72ZM139.96,55.4v5.41h-1.46v-5.41h1.46ZM138.28,46.89v6.72h-5.04v-6.72h5.04ZM138.28,54.09v1.31h-5.04v-1.31h5.04ZM138.5,64.63v-3.34h1.46v6.72h-6.72v-3.38h5.26ZM133.24,125.65v-6.72h6.72v6.72h-6.72ZM139.96,126.13v6.72h-6.72v-6.72h6.72ZM133.24,118.44v-6.72h6.72v6.72h-6.72ZM133.24,111.24v-6.72h6.72v6.72h-6.72ZM133.24,104.03v-6.72h6.72v6.72h-6.72ZM133.24,96.83v-6.72h6.72v6.72h-6.72ZM133.24,89.63v-6.72h6.72v6.72h-6.72ZM133.24,82.42v-6.72h6.72v6.72h-6.72ZM133.24,75.22v-6.72h6.72v6.72h-6.72ZM133.24,147.26v-6.72h5.04v6.72h-5.04ZM138.28,138.5v1.55h-5.04v-6.72h6.72v5.17h-1.68ZM140.44,60.81v-5.41h6.72v5.41h-6.72ZM140.44,46.17v-6.48h6.72v6.48h-6.72ZM140.44,39.2v-6.72h6.72v6.72h-6.72ZM147.74,39.2h-.09v-6.72h.09v6.72ZM147.74,39.68v6.48h-.09v-6.48h.09ZM101.57,64.63v-18.47h9.01v9.23h9.46v-9.23h-9.23v-18.47h9.23v-9.23h18.25v9.23h9.46v4.3h-14.98v23.4h-3.71v9.23h-18.47v9.23h-18.25v-9.23h9.23ZM46.17,73.87v-9.23h-18.47v-9.23h-9.23v-27.7h9.23v-9.23h18.47v-9.23h27.7v9.23h18.47v18.47h-9.23v18.47h-9.23v18.47h-27.7ZM83.1,147.74v-9.23h-9.23v-9.23h-9.23v-9.23h9.23v-9.23h9.23v-18.47h9.23v-9.23h18.47v-9.23h18.47v-9.23h3.49v83.1h-49.66ZM139.96,183.27h-6.72v-6.72h6.72v6.72ZM139.96,176.07h-6.72v-6.72h6.72v6.72ZM139.96,168.87h-6.72v-6.72h6.72v6.72ZM139.96,161.66h-6.72v-4.69h5.26v-2.03h1.46v6.72ZM139.96,154.46h-1.46v-6.72h1.46v6.72ZM147.16,183.27h-6.72v-6.72h6.72v6.72ZM147.16,176.07h-6.72v-6.72h6.72v6.72ZM147.16,168.87h-6.72v-6.72h6.72v6.72ZM147.16,161.66h-6.72v-6.72h6.72v6.72ZM147.16,154.46h-6.72v-6.72h6.72v6.72ZM154.37,183.27h-6.72v-6.72h6.72v6.72ZM154.37,176.07h-6.72v-6.72h6.72v6.72ZM154.37,168.87h-6.72v-6.72h6.72v6.72ZM154.37,161.66h-6.72v-6.72h6.72v6.72ZM154.37,154.46h-6.72v-6.72h6.72v6.72ZM154.37,147.26h-6.63v-6.72h6.63v6.72ZM154.37,104.03h-6.72v-6.72h6.72v6.72ZM154.37,96.83h-6.72v-6.72h6.72v6.72ZM154.37,89.63h-6.72v-6.72h6.72v6.72ZM154.37,82.42h-6.72v-6.72h6.72v6.72ZM154.37,75.22h-6.72v-6.72h6.72v6.72ZM154.37,68.02h-6.72v-6.72h6.72v6.72ZM154.37,60.81h-6.72v-5.41h.09v-1.31h6.63v6.72ZM154.37,53.61h-6.63v-6.72h6.63v6.72ZM147.74,46.41v-.02h6.63v.02h-6.63ZM161.57,183.27h-6.72v-6.72h6.72v6.72ZM161.57,176.07h-6.72v-6.72h6.72v6.72ZM161.57,168.87h-6.72v-6.72h6.72v6.72ZM161.57,161.66h-6.72v-6.72h6.72v6.72ZM161.57,154.46h-6.72v-6.72h6.72v6.72ZM161.57,96.83h-6.72v-6.72h6.72v6.72ZM161.57,89.63h-6.72v-6.72h6.72v6.72ZM161.57,82.42h-6.72v-6.72h6.72v6.72ZM161.57,75.22h-6.72v-6.72h6.72v6.72ZM161.57,68.02h-6.72v-6.72h6.72v6.72ZM161.57,60.81h-6.72v-6.72h6.72v6.72ZM161.57,53.61h-6.72v-6.72h6.72v6.72ZM161.57,46.41h-6.72v-.02h2.12v-6.71h4.6v6.72ZM161.57,39.2h-4.6v-6.72h4.6v6.72ZM168.77,183.27h-6.72v-6.72h6.72v6.72ZM168.77,176.07h-6.72v-6.72h6.72v6.72ZM168.77,168.87h-6.72v-6.72h6.72v6.72ZM168.77,161.66h-6.72v-6.72h6.72v6.72ZM168.77,154.46h-6.72v-6.72h6.72v6.72ZM168.77,132.85h-6.72v-6.72h6.72v6.72ZM168.77,125.65h-6.72v-6.72h6.72v6.72ZM168.77,118.44h-6.72v-6.72h6.72v6.72ZM168.77,111.24h-6.72v-6.72h6.72v6.72ZM168.77,104.03h-6.72v-6.72h6.72v6.72ZM168.77,89.63h-6.72v-6.72h6.72v6.72ZM168.77,82.42h-6.72v-6.72h6.72v6.72ZM168.77,75.22h-6.72v-6.72h6.72v6.72ZM168.77,68.02h-6.72v-6.72h6.72v6.72ZM168.77,60.81h-6.72v-6.72h6.72v6.72ZM168.77,53.61h-6.72v-6.72h6.72v6.72ZM168.77,46.41h-6.72v-6.72h6.72v6.72ZM168.77,39.2h-6.72v-6.72h6.72v6.72ZM175.98,183.27h-6.72v-6.72h6.72v6.72ZM175.98,176.07h-6.72v-6.72h6.72v6.72ZM175.98,168.87h-6.72v-6.72h6.72v6.72ZM175.98,161.66h-6.72v-6.72h6.72v6.72ZM175.98,154.46h-6.72v-6.72h6.72v6.72ZM175.98,147.26h-6.72v-6.72h6.72v6.72ZM175.98,132.85h-6.72v-6.72h6.72v6.72ZM175.98,125.65h-6.72v-6.72h6.72v6.72ZM175.98,118.44h-6.72v-6.72h6.72v6.72ZM175.98,111.24h-6.72v-6.72h6.72v6.72ZM175.98,89.63h-6.72v-6.72h6.72v6.72ZM175.98,82.42h-6.72v-6.72h6.72v6.72ZM175.98,75.22h-6.72v-6.72h6.72v6.72ZM175.98,68.02h-6.72v-6.72h6.72v6.72ZM175.98,60.81h-6.72v-6.72h6.72v6.72ZM175.98,53.61h-6.72v-6.72h6.72v6.72ZM175.98,46.41h-6.72v-6.72h6.72v6.72ZM175.98,39.2h-6.72v-6.72h6.72v6.72ZM183.18,183.27h-6.72v-6.72h6.72v6.72ZM183.18,176.07h-6.72v-6.72h6.72v6.72ZM183.18,168.87h-6.72v-6.72h6.72v6.72ZM183.18,161.66h-6.72v-6.72h6.72v6.72ZM183.18,154.46h-6.72v-6.72h6.72v6.72ZM183.18,147.26h-6.72v-6.72h6.72v6.72ZM183.18,89.63h-6.72v-6.72h6.72v6.72ZM183.18,82.42h-6.72v-6.72h6.72v6.72ZM183.18,75.22h-6.72v-6.72h6.72v6.72ZM183.18,68.02h-6.72v-6.72h6.72v6.72ZM183.18,60.81h-6.72v-6.72h6.72v6.72ZM183.18,53.61h-6.72v-6.72h6.72v6.72ZM183.18,46.41h-6.72v-6.72h6.72v6.72ZM183.18,39.2h-6.72v-6.72h6.72v6.72ZM190.38,183.27h-6.72v-6.72h6.72v6.72ZM190.38,176.07h-6.72v-6.72h6.72v6.72ZM190.38,168.87h-6.72v-6.72h6.72v6.72ZM190.38,161.66h-6.72v-6.72h6.72v6.72ZM190.38,154.46h-6.72v-6.72h6.72v6.72ZM190.38,147.26h-6.72v-6.72h6.72v6.72ZM190.38,140.05h-6.72v-6.72h6.72v6.72ZM190.38,96.83h-6.72v-6.72h6.72v6.72ZM190.38,89.63h-6.72v-6.72h6.72v6.72ZM190.38,82.42h-6.72v-6.72h6.72v6.72ZM190.38,75.22h-6.72v-6.72h6.72v6.72ZM190.38,68.02h-6.72v-6.72h6.72v6.72ZM190.38,60.81h-6.72v-6.72h6.72v6.72ZM190.38,53.61h-6.72v-6.72h6.72v6.72ZM190.38,46.41h-6.72v-6.72h6.72v6.72ZM190.38,39.2h-6.72v-6.72h6.72v6.72ZM190.86,82.9h6.72v6.72h-6.72v-6.72ZM190.86,90.11h6.72v6.72h-6.72v-6.72ZM190.86,104.52h6.72v6.72h-6.72v-6.72ZM190.86,118.44v-6.72h6.72v6.72h-6.72ZM368.4,120.66h-2.42v-25.87h2.42v25.87ZM301.51,38.64c-.21.11-.45.18-.73.18-.91,0-1.51.6-1.51,1.51s-.6,1.51-1.51,1.51-1.51.6-1.51,1.51c0,.6-.29,1.05-.73,1.3v-6.02h6ZM281.76,38.64h12.84v6.26c-.83.06-1.38.63-1.38,1.49s.55,1.43,1.38,1.49v3.6h-4.73c-.26-.34-.67-.55-1.18-.55s-.92.21-1.18.55h-5.74v-12.83ZM281.76,52.39h5.42s0,.03,0,.04c0,.91.61,1.51,1.51,1.51s1.51-.6,1.51-1.51c0-.02,0-.03,0-.04h4.41v7.63c-.83.06-1.38.63-1.38,1.49,0,.91-.6,1.51-1.51,1.51s-1.51.6-1.51,1.51c0,.26-.06.49-.15.69h-8.28v-12.84ZM281.76,66.14h6.39c-.6.19-.98.71-.98,1.42,0,.91.61,1.51,1.51,1.51s1.51.6,1.51,1.51.61,1.51,1.51,1.51,1.51.6,1.51,1.51v5.36h-11.46v-12.84ZM281.76,79.89h11.46v12.84h-11.46v-12.84ZM281.76,93.64h11.46v12.83h-11.46v-12.83ZM268.01,38.64h12.83v12.83h-12.83v-12.83ZM268.01,52.39h12.83v12.84h-12.83v-12.84ZM268.01,66.14h12.83v12.84h-12.83v-12.84ZM268.01,79.89h12.83v12.84h-12.83v-12.84ZM268.01,107.4h12.83v12.84h-12.83v-12.84ZM268.01,134.9h12.83v12.84h-12.83v-12.84ZM268.01,162.4h12.83v12.83h-12.83v-12.83ZM254.26,38.64h12.83v12.83h-12.83v-12.83ZM254.31,93.64h12.78v12.83h-12.78v-12.83ZM267.09,162.4v12.83h-12.83v-12.83h12.83ZM254.26,161.49v-12.83h12.83v12.83h-12.83ZM254.26,52.39h12.83v12.84h-12.83v-12.84ZM254.26,66.14h12.83v12.84h-12.83v-12.84ZM254.26,79.89h12.83v12.84h-12.78v-9.82h-.06v-3.01ZM267.09,188.99h-12.83v-12.83h12.83v12.83ZM280.84,188.99h-12.83v-12.83h12.83v12.83ZM294.6,188.99h-12.84v-12.83h12.84v12.83ZM294.6,175.24h-12.84v-12.83h12.84v12.83ZM294.6,161.49h-12.84v-12.83h12.84v12.83ZM281.76,147.74v-12.84h11.25c-.25.45-.7.73-1.3.73-.91,0-1.51.61-1.51,1.51v3.03c0,.91.61,1.51,1.51,1.51s1.51.6,1.51,1.51c0,.86.55,1.43,1.38,1.49v3.05h-12.84ZM297.76,147.74h-2.25v-2.81c.45.25.73.7.73,1.3,0,.91.6,1.51,1.51,1.51s1.51-.6,1.51-1.5v1.5h-1.51ZM354.18,134.42h-45.83v-.44h-3.05c-.06-.82-.63-1.38-1.49-1.38-.91,0-1.51-.6-1.51-1.51v-9.95h6.05v-.92h-6.05v-11.83h10.74v13.77h41.15v12.25ZM314.55,106.89v-12.1h47.8v.91h1.21v24.96h-1.21v-24.96h-1.21v24.96h-5.45v-13.77h-41.15ZM372.03,132h-1.21v-2.42h-1.21v-4.84h1.21v2.42h1.21v4.84Z"/>
      <polygon points="370.82 78.75 370.82 78.75 370.82 78.75 370.82 78.75"/>
      <polygon points="368.4 139.26 369.01 139.26 368.4 138.66 368.4 139.26"/>
      <polygon points="426.49 134.42 426.49 132 422.86 132 422.86 134.42 424.07 134.42 424.07 135.63 428.91 135.63 428.91 134.42 426.49 134.42"/>
      <polygon points="365.98 136.84 366.59 136.84 365.98 136.24 365.98 136.84"/>
      <polygon points="370.82 141.69 371.43 141.69 370.82 141.08 370.82 141.69"/>
      <polygon points="415.29 73.91 415.29 71.49 415.29 69.07 415.29 66.65 415.29 64.23 415.29 61.81 415.29 59.39 415.29 56.97 415.29 54.55 415.29 52.13 415.29 49.71 414.39 49.71 414.39 78.75 415.29 78.75 415.29 76.33 415.29 73.91"/>
      <polygon points="416.81 52.13 416.81 54.55 416.81 56.97 416.81 59.39 416.81 61.81 416.81 64.23 416.81 66.65 416.81 69.07 416.81 71.49 416.81 73.91 416.81 76.33 419.23 76.33 419.23 78.75 421.65 78.75 421.65 86.02 424.07 86.02 424.07 87.23 428.91 87.23 428.91 86.02 426.49 86.02 426.49 83.6 424.07 83.6 424.07 76.33 421.65 76.33 421.65 73.91 419.23 73.91 419.23 45.48 415.29 49.41 415.29 49.71 416.81 49.71 416.81 52.13"/>
      <polygon points="421.65 71.49 424.07 71.49 424.07 73.91 426.49 73.91 426.49 81.18 428.91 81.18 428.91 83.6 431.33 83.6 431.33 87.23 433.75 87.23 433.75 81.18 431.33 81.18 431.33 78.75 428.91 78.75 428.91 71.49 426.49 71.49 426.49 69.07 424.07 69.07 424.07 42.45 426.49 42.45 426.49 66.65 428.91 66.65 428.91 69.07 431.33 69.07 431.33 76.33 433.75 76.33 433.75 78.75 436.17 78.75 436.17 87.23 438.59 87.23 438.59 76.33 436.17 76.33 436.17 73.91 433.75 73.91 433.75 66.65 431.33 66.65 431.33 64.23 428.91 64.23 428.91 42.45 431.33 42.45 431.33 61.81 433.75 61.81 433.75 64.23 436.17 64.23 436.17 71.49 438.59 71.49 438.59 73.91 441.01 73.91 441.01 87.23 443.43 87.23 443.43 71.49 441.01 71.49 441.01 69.07 438.59 69.07 438.59 61.81 436.17 61.81 436.17 59.39 433.75 59.39 433.75 42.45 436.17 42.45 436.17 56.97 438.59 56.97 438.59 59.39 441.01 59.39 441.01 66.65 443.43 66.65 443.43 69.07 445.85 69.07 445.85 87.23 447.06 87.23 447.06 88.44 453.11 88.44 453.11 86.02 448.27 86.02 448.27 66.65 445.85 66.65 445.85 64.23 443.43 64.23 443.43 56.97 441.01 56.97 441.01 54.55 438.59 54.55 438.59 42.45 441.01 42.45 441.01 52.13 443.43 52.13 443.43 54.55 445.85 54.55 445.85 61.81 448.27 61.81 448.27 64.23 450.69 64.23 450.69 83.6 453.11 83.6 453.11 61.81 450.69 61.81 450.69 59.39 448.27 59.39 448.27 52.13 445.85 52.13 445.85 49.71 443.43 49.71 443.43 42.45 445.85 42.45 445.85 47.29 448.27 47.29 448.27 49.71 450.69 49.71 450.69 56.97 453.11 56.97 453.11 49.41 445.55 41.84 422.86 41.84 419.83 44.87 421.65 44.87 421.65 71.49"/>
      <polygon points="366.59 136.84 368.4 138.66 368.4 136.84 366.59 136.84"/>
      <polygon points="445.85 87.23 443.43 87.23 443.43 90.86 447.06 90.86 447.06 88.44 445.85 88.44 445.85 87.23"/>
      <polygon points="441.01 87.23 438.59 87.23 438.59 95.7 447.06 95.7 447.06 93.28 441.01 93.28 441.01 87.23"/>
      <polygon points="404.71 90.86 404.71 93.28 407.13 93.28 407.13 96 407.73 94.79 409.55 96.6 409.55 90.86 407.13 90.86 407.13 88.44 404.71 88.44 404.71 72.1 402.29 72.1 402.29 90.86 404.71 90.86"/>
      <polygon points="409.55 86.02 409.55 88.44 411.97 88.44 411.97 95.7 414.39 95.7 414.39 98.12 416.81 98.12 416.81 102.96 416.81 105.38 416.81 107.8 416.81 110.22 416.81 112.64 416.81 115.06 416.81 117.48 422.86 117.48 422.86 115.06 419.23 115.06 419.23 95.7 416.81 95.7 416.81 93.28 414.39 93.28 414.39 86.02 411.97 86.02 411.97 83.6 409.55 83.6 409.55 76.33 411.97 76.33 407.73 72.1 407.13 72.1 407.13 86.02 409.55 86.02"/>
      <polygon points="392.6 83.6 392.6 86.02 392.6 87.23 395.02 87.23 395.02 72.1 392.6 72.1 392.6 81.18 392.6 83.6"/>
      <polygon points="398.66 87.23 398.66 95.7 399.87 95.7 399.87 98.12 402.29 98.12 402.29 100.54 404.71 100.54 404.71 100.84 406.07 98.12 404.71 98.12 404.71 95.7 402.29 95.7 402.29 93.28 399.87 93.28 399.87 72.1 397.44 72.1 397.44 87.23 398.66 87.23"/>
      <polygon points="492.44 133.97 492.29 133.97 492.29 134.12 492.29 146.22 492.29 146.37 492.44 146.37 504.55 146.37 504.7 146.37 504.7 146.22 504.7 134.12 504.7 133.97 504.55 133.97 492.44 133.97"/>
      <polygon points="492.44 103.71 492.29 103.71 492.29 103.87 492.29 115.97 492.29 116.12 492.44 116.12 504.55 116.12 504.7 116.12 504.7 115.97 504.7 103.87 504.7 103.71 504.55 103.71 492.44 103.71"/>
      <polygon points="492.44 73.46 492.29 73.46 492.29 73.61 492.29 85.71 492.29 85.86 492.44 85.86 504.55 85.86 504.7 85.86 504.7 85.71 504.7 73.61 504.7 73.46 504.55 73.46 492.44 73.46"/>
      <polygon points="477.32 103.71 477.17 103.71 477.17 103.87 477.17 115.97 477.17 116.12 477.32 116.12 489.42 116.12 489.57 116.12 489.57 115.97 489.57 103.87 489.57 103.71 489.42 103.71 477.32 103.71"/>
      <polygon points="477.32 73.46 477.17 73.46 477.17 73.61 477.17 85.71 477.17 85.86 477.32 85.86 489.42 85.86 489.57 85.86 489.57 85.71 489.57 73.61 489.57 73.46 489.42 73.46 477.32 73.46"/>
      <polygon points="477.32 133.97 477.17 133.97 477.17 134.12 477.17 146.22 477.17 146.37 477.32 146.37 489.42 146.37 489.57 146.37 489.57 146.22 489.57 134.12 489.57 133.97 489.42 133.97 477.32 133.97"/>
      <polygon points="449.48 118.84 449.48 118.69 447.06 118.69 447.06 117.48 447.06 115.06 445.85 115.06 445.85 112.64 422.86 112.64 422.86 115.06 443.43 115.06 443.43 117.48 445.85 117.48 445.85 118.69 441.01 118.69 441.01 117.48 422.86 117.48 422.86 119.9 430.12 119.9 430.12 122.32 422.86 122.32 422.86 124.74 430.12 124.74 430.12 127.16 422.86 127.16 422.86 129.58 428.91 129.58 428.91 132 430.12 132 430.12 135.63 428.91 135.63 428.91 136.84 430.12 136.84 430.12 138.05 449.48 138.05 449.48 136.84 453.11 136.84 453.11 134.42 449.48 134.42 449.48 132 453.11 132 453.11 131.25 459.16 131.25 459.31 131.25 459.31 131.1 459.31 118.99 459.31 118.84 459.16 118.84 449.48 118.84"/>
      <polygon points="462.19 133.97 462.04 133.97 462.04 134.12 462.04 146.22 462.04 146.37 462.19 146.37 474.29 146.37 474.44 146.37 474.44 146.22 474.44 134.12 474.44 133.97 474.29 133.97 462.19 133.97"/>
      <polygon points="462.19 103.71 462.04 103.71 462.04 103.87 462.04 115.97 462.04 116.12 462.19 116.12 474.29 116.12 474.44 116.12 474.44 115.97 474.44 103.87 474.44 103.71 474.29 103.71 462.19 103.71"/>
      <polygon points="462.19 73.46 462.04 73.46 462.04 73.61 462.04 85.71 462.04 85.86 462.19 85.86 474.29 85.86 474.44 85.86 474.44 85.71 474.44 73.61 474.44 73.46 474.29 73.46 462.19 73.46"/>
      <rect x="553.71" y="91.01" width="18.91" height="18.91"/>
      <polygon points="534.8 72.1 534.8 53.19 515.89 53.19 515.89 88.59 507.57 88.59 507.42 88.59 507.42 88.74 507.42 100.84 507.42 100.99 507.57 100.99 515.89 100.99 515.89 103.71 507.57 103.71 507.42 103.71 507.42 103.87 507.42 115.97 507.42 116.12 507.57 116.12 515.89 116.12 515.89 118.84 507.57 118.84 507.42 118.84 507.42 118.99 507.42 131.1 507.42 131.25 507.57 131.25 515.89 131.25 515.89 133.97 507.57 133.97 507.42 133.97 507.42 134.12 507.42 146.22 507.42 146.37 507.57 146.37 515.89 146.37 515.89 147.74 534.8 147.74 534.8 91.01 553.71 91.01 553.71 72.1 534.8 72.1"/>
      <rect x="691.83" y="46.17" width="18.47" height="18.47"/>
      <path d="M771.82,89.55h-34.91v11.64h34.91v-11.64Z"/>
      <path d="M775.78,101.19h-3.96v46.55h11.64v-46.55h-7.68Z"/>
      <path d="M729.23,101.19h-3.96v.38h-5.96v9.23h-9.01v18.47h-9.23v9.23h-18.47v-18.47h9.23v-27.7h9.23v-18.47h-18.47v18.47h-9.23v18.47h-9.23v8.82c-2.66.93-4.73,3.85-6.2,8.75l-10.44,9.23h-14.83l-10.59-6.5-6.2-12.4v-17.25l6.2-12.56,10.59-6.66h14.67l10.44,9.23c1.82,5.95,4.59,8.92,8.32,8.92s4.84-4.59,3.63-13.77l-17.7-16.03h-22.84l-16.04,9.68-2.72,5.23v-32.3h-18.91v56.73h-18.91v18.91h18.91v18.91h18.91v-13.2l2.72,5.18,16.04,9.53h22.99l11.95-10.82v.08h9.23v9.23h27.7v-9.01h9.23v-9.23h9.23v-18.69h5.74v36.93h11.64v-46.55h-7.68Z"/>
      <polygon points="783.9 87.98 783.75 87.98 783.75 88.13 783.75 101.45 783.75 101.6 783.9 101.6 797.21 101.6 797.36 101.6 797.36 101.45 797.36 88.13 797.36 87.98 797.21 87.98 783.9 87.98"/>
      <polygon points="844.41 133.36 844.26 133.36 844.26 133.52 844.26 146.83 844.26 146.98 844.41 146.98 857.72 146.98 857.87 146.98 857.87 146.83 857.87 133.52 857.87 133.36 857.72 133.36 844.41 133.36"/>
      <polygon points="844.41 148.49 844.26 148.49 844.26 148.64 844.26 161.96 844.26 162.11 844.41 162.11 857.72 162.11 857.87 162.11 857.87 161.96 857.87 148.64 857.87 148.49 857.72 148.49 844.41 148.49"/>
      <polygon points="829.28 72.86 829.13 72.86 829.13 73.01 829.13 86.32 829.13 86.47 829.28 86.47 842.59 86.47 842.74 86.47 842.74 86.32 842.74 73.01 842.74 72.86 842.59 72.86 829.28 72.86"/>
      <polygon points="844.41 118.24 844.26 118.24 844.26 118.39 844.26 131.7 844.26 131.85 844.41 131.85 857.72 131.85 857.87 131.85 857.87 131.7 857.87 118.39 857.87 118.24 857.72 118.24 844.41 118.24"/>
      <polygon points="844.41 103.11 844.26 103.11 844.26 103.26 844.26 116.57 844.26 116.73 844.41 116.73 857.72 116.73 857.87 116.73 857.87 116.57 857.87 103.26 857.87 103.11 857.72 103.11 844.41 103.11"/>
      <polygon points="783.9 148.49 783.75 148.49 783.75 148.64 783.75 161.96 783.75 162.11 783.9 162.11 797.21 162.11 797.36 162.11 797.36 161.96 797.36 148.64 797.36 148.49 797.21 148.49 783.9 148.49"/>
      <polygon points="829.28 118.24 829.13 118.24 829.13 118.39 829.13 131.7 829.13 131.85 829.28 131.85 842.59 131.85 842.74 131.85 842.74 131.7 842.74 118.39 842.74 118.24 842.59 118.24 829.28 118.24"/>
      <polygon points="844.41 87.98 844.26 87.98 844.26 88.13 844.26 101.45 844.26 101.6 844.41 101.6 857.72 101.6 857.87 101.6 857.87 101.45 857.87 88.13 857.87 87.98 857.72 87.98 844.41 87.98"/>
      <polygon points="844.41 72.86 844.26 72.86 844.26 73.01 844.26 86.32 844.26 86.47 844.41 86.47 857.72 86.47 857.87 86.47 857.87 86.32 857.87 73.01 857.87 72.86 857.72 72.86 844.41 72.86"/>
      <polygon points="799.02 72.86 798.87 72.86 798.87 73.01 798.87 86.32 798.87 86.47 799.02 86.47 812.34 86.47 812.49 86.47 812.49 86.32 812.49 73.01 812.49 72.86 812.34 72.86 799.02 72.86"/>
      <polygon points="799.02 163.62 798.87 163.62 798.87 163.77 798.87 177.08 798.87 177.23 799.02 177.23 812.34 177.23 812.49 177.23 812.49 177.08 812.49 163.77 812.49 163.62 812.34 163.62 799.02 163.62"/>
      <polygon points="829.28 163.62 829.13 163.62 829.13 163.77 829.13 177.08 829.13 177.23 829.28 177.23 842.59 177.23 842.74 177.23 842.74 177.08 842.74 163.77 842.74 163.62 842.59 163.62 829.28 163.62"/>
      <polygon points="783.9 103.11 783.75 103.11 783.75 103.26 783.75 116.57 783.75 116.73 783.9 116.73 797.21 116.73 797.36 116.73 797.36 116.57 797.36 103.26 797.36 103.11 797.21 103.11 783.9 103.11"/>
      <polygon points="799.02 118.24 798.87 118.24 798.87 118.39 798.87 131.7 798.87 131.85 799.02 131.85 812.34 131.85 812.49 131.85 812.49 131.7 812.49 118.39 812.49 118.24 812.34 118.24 799.02 118.24"/>
      <polygon points="814.15 72.86 814 72.86 814 73.01 814 86.32 814 86.47 814.15 86.47 827.46 86.47 827.61 86.47 827.61 86.32 827.61 73.01 827.61 72.86 827.46 72.86 814.15 72.86"/>
      <polygon points="814.15 163.62 814 163.62 814 163.77 814 177.08 814 177.23 814.15 177.23 827.46 177.23 827.61 177.23 827.61 177.08 827.61 163.77 827.61 163.62 827.46 163.62 814.15 163.62"/>
      <polygon points="814.15 118.24 814 118.24 814 118.39 814 131.7 814 131.85 814.15 131.85 827.46 131.85 827.61 131.85 827.61 131.7 827.61 118.39 827.61 118.24 827.46 118.24 814.15 118.24"/>
      <rect x="895.21" y="102.74" width="18" height="9"/>
      <path d="M886.21,118.44h-3.62v-6.72h6.72v-.48h-6.72v-6.72h6.72v-.48h-6.72v-6.72h6.72v-.48h-6.72v-6.72h6.72v-.48h-6.72v-6.72h6.72v-.48h-6.72v-6.72h6.72v-.48h-6.72v-6.72h6.72v-.48h-6.72v-6.72h6.72v-.48h-6.72v-6.72h6.72v-.48h-6.72v-6.72h6.72v-.48h-6.72v-6.72h6.72v-.48h-6.72v-6.72h6.72v-.48h-21.61v151.75h21.61v-.48h-6.72v-6.72h6.72v-.48h-6.72v-6.72h6.72v-.48h-6.72v-6.72h6.72v-.48h-6.72v-6.72h6.72v-.48h-6.72v-6.72h6.72v-9h5.9v-27h-9v6.71ZM874.9,183.27h-6.72v-6.72h6.72v6.72ZM874.9,176.07h-6.72v-6.72h6.72v6.72ZM874.9,168.87h-6.72v-6.72h6.72v6.72ZM874.9,161.66h-6.72v-6.72h6.72v6.72ZM874.9,154.46h-6.72v-6.72h6.72v6.72ZM874.9,147.26h-6.72v-6.72h6.72v6.72ZM874.9,140.05h-6.72v-6.72h6.72v6.72ZM874.9,132.85h-6.72v-6.72h6.72v6.72ZM874.9,125.65h-6.72v-6.72h6.72v6.72ZM874.9,118.44h-6.72v-6.72h6.72v6.72ZM874.9,111.24h-6.72v-6.72h6.72v6.72ZM874.9,104.03h-6.72v-6.72h6.72v6.72ZM874.9,96.83h-6.72v-6.72h6.72v6.72ZM874.9,89.63h-6.72v-6.72h6.72v6.72ZM874.9,82.42h-6.72v-6.72h6.72v6.72ZM874.9,75.22h-6.72v-6.72h6.72v6.72ZM874.9,68.02h-6.72v-6.72h6.72v6.72ZM874.9,60.81h-6.72v-6.72h6.72v6.72ZM874.9,53.61h-6.72v-6.72h6.72v6.72ZM874.9,46.41h-6.72v-6.72h6.72v6.72ZM874.9,39.2h-6.72v-6.72h6.72v6.72ZM882.11,183.27h-6.72v-6.72h6.72v6.72ZM882.11,176.07h-6.72v-6.72h6.72v6.72ZM882.11,168.87h-6.72v-6.72h6.72v6.72ZM882.11,161.66h-6.72v-6.72h6.72v6.72ZM882.11,154.46h-6.72v-6.72h6.72v6.72ZM882.11,132.85h-6.72v-6.72h6.72v6.72ZM882.11,125.65h-6.72v-6.72h6.72v6.72ZM882.11,118.44h-6.72v-6.72h6.72v6.72ZM882.11,111.24h-6.72v-6.72h6.72v6.72ZM882.11,104.03h-6.72v-6.72h6.72v6.72ZM882.11,96.83h-6.72v-6.72h6.72v6.72ZM882.11,89.63h-6.72v-6.72h6.72v6.72ZM882.11,82.42h-6.72v-6.72h6.72v6.72ZM882.11,75.22h-6.72v-6.72h6.72v6.72ZM882.11,68.02h-6.72v-6.72h6.72v6.72ZM882.11,60.81h-6.72v-6.72h6.72v6.72ZM882.11,53.61h-6.72v-6.72h6.72v6.72ZM882.11,46.41h-6.72v-6.72h6.72v6.72ZM882.11,39.2h-6.72v-6.72h6.72v6.72ZM882.59,118.92h3.62v6.72h-3.62v-6.72ZM882.59,126.13h3.62v6.72h-3.62v-6.72Z"/>
      <rect x="895.21" y="138.74" width="18" height="9"/>
      <rect x="913.21" y="111.74" width="9" height="9"/>
      <rect x="913.21" y="129.74" width="9" height="9"/>
      <path d="M949.93,102.74h-18v9h-9v27h9v9h18v-9h9v-27h-9v-9ZM949.93,138.38h-18v-26.28h18v26.28Z"/>
      <polygon points="968.65 111.74 968.65 102.74 959.65 102.74 959.65 147.74 968.65 147.74 968.65 120.74 977.65 120.74 977.65 111.74 968.65 111.74"/>
      <polygon points="995.65 102.74 995.65 111.74 986.65 111.74 986.65 120.74 995.65 120.74 995.65 147.74 1004.65 147.74 1004.65 102.74 995.65 102.74"/>
      <rect x="977.65" y="120.74" width="9" height="9"/>
    </g>
  </g>
</svg>